<?xml version="1.0" standalone="no"?>
<!DOCTYPE svg PUBLIC "-//W3C//DTD SVG 20010904//EN"
 "http://www.w3.org/TR/2001/REC-SVG-20010904/DTD/svg10.dtd">
<svg version="1.0" xmlns="http://www.w3.org/2000/svg"
 width="500.000000pt" height="500.000000pt" viewBox="0 0 500.000000 500.000000"
 preserveAspectRatio="xMidYMid meet">
<metadata>
Created by potrace 1.16, written by Peter Selinger 2001-2019
</metadata>
<g transform="translate(0.000000,500.000000) scale(0.100000,-0.100000)"
fill="#000000" stroke="none">
<path d="M454 4766 c-69 -26 -117 -60 -161 -113 -71 -89 -83 -139 -83 -345 l0
-168 1248 0 c1247 0 1394 -4 1557 -36 168 -34 356 -109 458 -184 58 -42 184
-167 217 -215 50 -72 100 -184 128 -283 23 -86 26 -115 27 -257 0 -122 -4
-175 -18 -225 -33 -125 -109 -250 -205 -338 l-47 -43 30 -21 c56 -40 145 -137
194 -212 64 -98 107 -203 132 -324 19 -89 20 -108 10 -227 -14 -160 -38 -250
-102 -381 -129 -264 -399 -436 -789 -504 -94 -17 -183 -23 -362 -27 l-238 -6
0 382 0 381 168 0 c233 0 341 26 426 100 55 49 79 102 79 180 0 146 -92 243
-254 270 -38 6 -258 10 -531 10 l-468 0 0 -660 0 -660 -405 0 -405 0 0 1025 0
1024 888 3 c812 3 891 5 939 21 107 36 143 88 143 207 0 132 -36 185 -149 220
-61 19 -97 20 -1367 20 l-1304 0 2 -1447 3 -1448 29 -62 c33 -73 107 -147 181
-184 l50 -24 2025 0 2025 0 57 27 c68 31 139 101 176 172 l27 51 0 2030 0
2030 -24 50 c-37 74 -111 148 -184 181 l-62 29 -2000 2 -2000 2 -61 -23z"/>
</g>
</svg>
